# xmcd
#
# Track frame offsets: 
#        150
#        29529
#        56028
#        75567
#        92006
#        114899
#        126969
#        150482
#        169278
#        186618
#        211648
#        231075
#        256050
#        266826
#        288545
#        292987
#
# Disc length: 4217 seconds
#
# Revision: 0
# Processed by: cddbd v1.5.2PL0 Copyright (c) Steve Scherf et al.
# Submitted via: ExactAudioCopy v1.0b3
#
DISCID=e1107710
DTITLE=Bigtyme Recordz - All Screwed Up 2
DYEAR=2004
DGENRE=Rap/Hiphop
TTITLE0=Shine - Big T
TTITLE1=Dangerous - Street Military Featuring Papa Rue
TTITLE2=Gansta - Heavy Row,Thug Dirt,Anonamous,Papa Rue
TTITLE3=Down South - Bigtyme Boyz,Miss Asia,Chap
TTITLE4=Im A Playa - Pymptyte,Fat Pat
TTITLE5=Hustlers - PSK-13,Z-Ro
TTITLE6=Feel Me Or Kill Me - K-Rino,RoYo,Lil Flex
TTITLE7=Oh No - Bigtyme Boyz
TTITLE8=Up All Night - Bigtyme Boyz,Big T
TTITLE9=No Going To Jail - 55,Big Moe
TTITLE10=F The Feeds - Bigtyme Boyz
TTITLE11=South Side Killa - South Park Coalition
TTITLE12=Not EnoughNiggas - Bigtyme Boyz
TTITLE13=Heaven For A G - Born 2wice
TTITLE14=Big Playaz - Ice T
TTITLE15=Cold World - Street Military,Ronnie Spencer,Klondyke Kat
EXTD=
EXTT0=
EXTT1=
EXTT2=
EXTT3=
EXTT4=
EXTT5=
EXTT6=
EXTT7=
EXTT8=
EXTT9=
EXTT10=
EXTT11=
EXTT12=
EXTT13=
EXTT14=
EXTT15=
PLAYORDER=
